# xmcd CD database file
#
# Track frame offsets:
#	150
#	17332
#	32369
#	47151
#	63349
#	80720
#	99019
#	111817
#	126805
#	140257
#	155546
#	171596
#
# Disc length: 2512 seconds
#
# Revision: 0
# Processed by: cddbd v1.5.2PL0 Copyright (c) Steve Scherf et al.
# Submitted via: CDex 1.51
#
DISCID=9109ce0c
DTITLE=Steve Forde - Guns and Guitars
DYEAR=2008
DGENRE=Country
TTITLE0=Life's Got Something Good For Me
TTITLE1=All Mine
TTITLE2=Guns and Guitars
TTITLE3=Sunburn
TTITLE4=Road Dog
TTITLE5=Half The Battle
TTITLE6=I Ain't That Guy
TTITLE7=Words
TTITLE8=That Was Me
TTITLE9=A Longer Chain
TTITLE10=Where I Stand 
TTITLE11=Summer Thing
EXTD=YEAR: 2008
EXTT0=
EXTT1=
EXTT2=
EXTT3=
EXTT4=
EXTT5=
EXTT6=
EXTT7=
EXTT8=
EXTT9=
EXTT10=
EXTT11=
PLAYORDER=
